HIERARCHY
ROOT joint_Root
{
	OFFSET 0.0 0.0 0.0
	CHANNELS 6 Xposition Yposition Zposition Zrotation Xrotation Yrotation 
	JOINT Hips
	{
		OFFSET -17.1583 93.1646 452.98
		CHANNELS 6 Xposition Yposition Zposition Zrotation Xrotation Yrotation 
		JOINT Spine
		{
			OFFSET 15.7357 0.0 0.0
			CHANNELS 6 Xposition Yposition Zposition Zrotation Xrotation Yrotation 
			JOINT Chest
			{
				OFFSET 8.98455 -0.406207 0.0
				CHANNELS 6 Xposition Yposition Zposition Zrotation Xrotation Yrotation 
				JOINT Neck
				{
					OFFSET 16.3773 0.0 0.0
					CHANNELS 6 Xposition Yposition Zposition Zrotation Xrotation Yrotation 
					JOINT Head
					{
						OFFSET 6.45672 0.0 0.0
						CHANNELS 6 Xposition Yposition Zposition Zrotation Xrotation Yrotation 
						End Site
						{
							OFFSET 0.0 0.0 0.0
						}
					}
				}
				JOINT Shoulder_L
				{
					OFFSET 12.9942 -0.242716 4.98039
					CHANNELS 6 Xposition Yposition Zposition Zrotation Xrotation Yrotation 
					JOINT UpperArm_L
					{
						OFFSET 5.34809 0.0 0.0
						CHANNELS 6 Xposition Yposition Zposition Zrotation Xrotation Yrotation 
						JOINT LowerArm_L
						{
							OFFSET 24.3286 1.87007e-05 0.0
							CHANNELS 6 Xposition Yposition Zposition Zrotation Xrotation Yrotation 
							JOINT Hand_L
							{
								OFFSET 22.2916 0.0 0.0
								CHANNELS 6 Xposition Yposition Zposition Zrotation Xrotation Yrotation 
								End Site
								{
									OFFSET 0.0 0.0 0.0
								}
							}
						}
					}
				}
				JOINT Shoulder_R
				{
					OFFSET 12.9945 -0.242716 -4.98039
					CHANNELS 6 Xposition Yposition Zposition Zrotation Xrotation Yrotation 
					JOINT UpperArm_R
					{
						OFFSET -5.34813 0.0 0.0
						CHANNELS 6 Xposition Yposition Zposition Zrotation Xrotation Yrotation 
						JOINT LowerArm_R
						{
							OFFSET -24.3289 0.000322201 0.0
							CHANNELS 6 Xposition Yposition Zposition Zrotation Xrotation Yrotation 
							JOINT Hand_R
							{
								OFFSET -22.2915 -0.000108084 0.0
								CHANNELS 6 Xposition Yposition Zposition Zrotation Xrotation Yrotation 
								End Site
								{
									OFFSET 0.0 0.0 0.0
								}
							}
						}
					}
				}
			}
		}
		JOINT UpperLeg_L
		{
			OFFSET -2.19248 -6.46944 0.0
			CHANNELS 6 Xposition Yposition Zposition Zrotation Xrotation Yrotation 
			JOINT LowerLeg_L
			{
				OFFSET 39.0811 0.0 -1.23785e-05
				CHANNELS 6 Xposition Yposition Zposition Zrotation Xrotation Yrotation 
				JOINT Foot_L
				{
					OFFSET 40.9854 0.0 -1.26872e-05
					CHANNELS 6 Xposition Yposition Zposition Zrotation Xrotation Yrotation 
					JOINT Toes_L
					{
						OFFSET 11.7543 0.0 0.0
						CHANNELS 6 Xposition Yposition Zposition Zrotation Xrotation Yrotation 
						End Site
						{
							OFFSET 0.0 0.0 0.0
						}
					}
				}
			}
		}
		JOINT UpperLeg_R
		{
			OFFSET -2.19251 6.46944 0.0
			CHANNELS 6 Xposition Yposition Zposition Zrotation Xrotation Yrotation 
			JOINT LowerLeg_R
			{
				OFFSET -39.0811 -0.00228153 -0.0401928
				CHANNELS 6 Xposition Yposition Zposition Zrotation Xrotation Yrotation 
				JOINT Foot_R
				{
					OFFSET -40.9854 0.0 0.0
					CHANNELS 6 Xposition Yposition Zposition Zrotation Xrotation Yrotation 
					JOINT Toes_R
					{
						OFFSET -11.7543 0.0 0.0
						CHANNELS 6 Xposition Yposition Zposition Zrotation Xrotation Yrotation 
						End Site
						{
							OFFSET 0.0 0.0 0.0
						}
					}
				}
			}
		}
	}
}
MOTION
Frames:	6
Frame Time:	0.0333333
0.000000 0.000000 0.000000 0.000000 0.000000 -0.000000 1.416130 92.529000 -462.353000 79.932600 -4.611020 -20.737900 15.735700 0.000005 -0.000001 50.418300 84.424800 -46.879900 8.984550 -0.406207 -0.000000 1.074670 -7.308460 7.147380 16.377300 -0.000001 -0.000001 -6.674460 9.567600 -3.884530 6.456720 -0.000001 -0.000000 -13.167700 14.177000 0.109886 12.994200 -0.242716 4.980390 -91.605700 5.561890 -73.868500 5.348090 -0.000007 -0.000001 -71.270700 -33.411400 -7.388840 24.328600 0.000019 0.000005 56.595000 -0.130703 -90.086200 22.291600 -0.000001 0.000005 46.925400 3.916910 25.393900 12.994500 -0.242716 -4.980390 89.285600 2.454340 -73.766500 -5.348130 -0.000001 -0.000004 -55.546900 -14.169300 28.870700 -24.328900 0.000322 -0.000009 3.238630 8.959910 -19.973200 -22.291500 -0.000108 -0.000004 57.014200 5.508030 -6.862230 -2.192480 -6.469440 -0.000000 -171.160000 -6.005610 1.831110 39.081100 -0.000007 -0.000012 -0.015215 0.058489 14.581500 40.985400 -0.000006 -0.000013 2.944240 14.365300 -44.595700 11.754300 -0.000000 0.000003 -0.092019 -0.424323 -34.249500 -2.192510 6.469440 -0.000001 -169.852000 -10.148300 133.027000 -39.081100 -0.002282 -0.040193 -0.017442 0.023208 41.752700 -40.985400 0.000008 0.000006 -10.117300 -10.146200 -75.937500 -11.754300 -0.000006 -0.000006 -0.001467 0.189497 -8.885890
0.000000 0.000000 0.000000 0.000000 0.000000 -0.000000 1.097250 92.785000 -455.112000 81.257300 -5.027070 -19.184900 15.735700 0.000005 -0.000001 50.659400 84.288600 -47.518400 8.984550 -0.406207 -0.000000 1.292070 -7.415330 6.367600 16.377300 -0.000001 -0.000001 -6.081790 9.676840 -4.045860 6.456720 -0.000001 -0.000000 -13.036000 14.325800 -0.085739 12.994200 -0.242716 4.980390 -91.790500 6.123360 -73.666500 5.348090 -0.000007 -0.000001 -70.613200 -31.155200 -5.827820 24.328600 0.000019 0.000005 55.706600 -0.090015 -90.061300 22.291600 -0.000001 0.000005 46.797500 3.926840 25.256100 12.994500 -0.242716 -4.980390 89.246900 2.556350 -73.578200 -5.348130 -0.000001 -0.000004 -53.233500 -14.759000 30.652300 -24.328900 0.000322 -0.000009 3.071920 7.921230 -21.283900 -22.291500 -0.000108 -0.000004 56.746700 5.484060 -5.907730 -2.192480 -6.469440 -0.000000 -173.026000 -4.877380 3.430130 39.081100 -0.000007 -0.000012 -0.016598 0.051548 17.847300 40.985400 -0.000006 -0.000013 0.069849 12.032800 -34.739200 11.754300 -0.000000 0.000003 -0.013663 -0.129240 -21.847900 -2.192510 6.469440 -0.000001 -173.052000 -11.899800 137.430000 -39.081100 -0.002282 -0.040193 -0.002016 0.009071 30.378200 -40.985400 0.000008 0.000006 -10.620000 -8.265290 -78.045300 -11.754300 -0.000006 -0.000006 -0.001300 0.187250 -8.977210
0.000000 0.000000 0.000000 0.000000 0.000000 -0.000000 0.687652 91.940400 -447.688000 82.435200 -5.046960 -17.145000 15.735700 0.000005 -0.000001 52.887300 84.139400 -50.089800 8.984550 -0.406207 -0.000000 1.777980 -7.214490 5.707950 16.377300 -0.000001 -0.000001 -5.189510 9.353880 -3.905680 6.456720 -0.000001 -0.000000 -12.477200 13.957000 -0.411110 12.994200 -0.242716 4.980390 -91.942200 6.514470 -73.358900 5.348090 -0.000007 -0.000001 -70.281400 -27.124800 -3.138820 24.328600 0.000019 0.000005 54.083700 1.778250 -88.711900 22.291600 -0.000001 0.000005 47.200100 3.939470 25.079900 12.994500 -0.242716 -4.980390 89.165500 2.811400 -73.459600 -5.348130 -0.000001 -0.000004 -52.641700 -14.228100 30.036900 -24.328900 0.000322 -0.000009 2.342070 6.257660 -20.573600 -22.291500 -0.000108 -0.000004 57.990900 5.456940 -4.894580 -2.192480 -6.469440 -0.000000 -174.654000 -2.024650 3.754650 39.081100 -0.000007 -0.000012 -0.025937 0.057357 24.332700 40.985400 -0.000006 -0.000013 -3.661030 9.422150 -27.664700 11.754300 -0.000000 0.000003 0.001817 0.040280 -14.942800 -2.192510 6.469440 -0.000001 -174.854000 -12.533300 140.511000 -39.081100 -0.002282 -0.040193 -0.002101 0.010273 27.761300 -40.985400 0.000008 0.000006 -9.944050 -9.035870 -80.266900 -11.754300 -0.000006 -0.000006 -0.001388 0.188441 -8.928810
0.000000 0.000000 0.000000 0.000000 0.000000 -0.000000 0.046019 90.104400 -440.338000 82.288900 -4.037080 -15.857400 15.735700 0.000005 -0.000001 56.735300 84.272500 -53.625000 8.984550 -0.406207 -0.000000 2.006920 -6.435380 6.332780 16.377300 -0.000001 -0.000001 -4.099540 8.543790 -4.124310 6.456720 -0.000001 -0.000000 -11.607200 12.706300 -0.994158 12.994200 -0.242716 4.980390 -92.099700 6.888210 -73.001800 5.348090 -0.000007 -0.000001 -71.199600 -22.211500 -0.550094 24.328600 0.000019 0.000005 53.646800 6.753590 -85.053000 22.291600 -0.000001 0.000005 47.241200 4.009100 24.097300 12.994500 -0.242716 -4.980390 89.007100 3.285040 -73.173800 -5.348130 -0.000001 -0.000004 -52.868200 -13.802400 27.729500 -24.328900 0.000322 -0.000009 1.288640 3.689570 -19.278200 -22.291500 -0.000108 -0.000004 58.482400 5.449110 -4.607990 -2.192480 -6.469440 -0.000000 -174.285000 -0.217446 1.870570 39.081100 -0.000007 -0.000012 -0.064185 0.094374 34.220600 40.985400 -0.000006 -0.000013 -3.306650 11.224500 -29.742400 11.754300 -0.000000 0.000003 0.001794 0.039556 -14.972200 -2.192510 6.469440 -0.000001 -173.144000 -9.143620 141.698000 -39.081100 -0.002282 -0.040193 -0.016643 0.031522 32.316400 -40.985400 0.000008 0.000006 -11.300600 -6.126070 -78.193600 -11.754300 -0.000006 -0.000006 -0.000009 0.167815 -9.766820
0.000000 0.000000 0.000000 0.000000 0.000000 -0.000000 -0.741909 87.454400 -432.902000 81.263100 -2.531980 -13.874600 15.735700 0.000005 -0.000001 65.050800 84.293400 -61.245800 8.984550 -0.406207 -0.000000 2.768150 -4.975630 7.726570 16.377300 -0.000001 -0.000001 -2.966510 7.388960 -4.230830 6.456720 -0.000001 -0.000000 -10.598300 10.936100 -2.109080 12.994200 -0.242716 4.980390 -92.501200 7.910190 -72.390100 5.348090 -0.000007 -0.000001 -71.594000 -17.266000 1.696460 24.328600 0.000019 0.000005 51.350600 14.484800 -78.688600 22.291600 -0.000001 0.000005 46.852900 4.097760 22.820400 12.994500 -0.242716 -4.980390 88.657300 4.302430 -72.650700 -5.348130 -0.000001 -0.000004 -53.592800 -13.074800 24.076400 -24.328900 0.000322 -0.000009 0.544195 1.637330 -18.416900 -22.291500 -0.000108 -0.000004 59.367100 5.430980 -3.979840 -2.192480 -6.469440 -0.000000 -171.748000 -0.347046 -1.854130 39.081100 -0.000007 -0.000012 -0.033217 0.030329 47.605300 40.985400 -0.000006 -0.000013 -4.578540 9.521240 -34.178800 11.754300 -0.000000 0.000003 0.002150 0.052922 -14.430200 -2.192510 6.469440 -0.000001 -168.491000 -3.196640 141.857000 -39.081100 -0.002282 -0.040193 0.197986 -0.201598 44.005600 -40.985400 0.000008 0.000006 -3.385580 -3.987730 -77.277400 -11.754300 -0.000006 -0.000006 -0.002967 0.207895 -8.137570
0.000000 0.000000 0.000000 0.000000 0.000000 -0.000000 -1.360620 84.545200 -425.862000 80.116400 -1.769830 -11.425000 15.735700 0.000005 -0.000001 76.612900 83.864300 -72.310700 8.984550 -0.406207 -0.000000 4.302610 -2.966170 8.707860 16.377300 -0.000001 -0.000001 -2.680690 6.350570 -3.407400 6.456720 -0.000001 -0.000000 -10.049100 9.519490 -3.250690 12.994200 -0.242716 4.980390 -92.960300 9.249410 -72.165400 5.348090 -0.000007 -0.000001 -71.318800 -17.290500 4.034620 24.328600 0.000019 0.000005 47.451300 21.935800 -71.071800 22.291600 -0.000001 0.000005 44.836200 4.149730 22.060500 12.994500 -0.242716 -4.980390 88.109000 5.769840 -71.820700 -5.348130 -0.000001 -0.000004 -55.966100 -11.217200 17.480900 -24.328900 0.000322 -0.000009 -0.113219 -0.338335 -18.267700 -22.291500 -0.000108 -0.000004 60.693200 5.399280 -2.917200 -2.192480 -6.469440 -0.000000 -169.315000 -0.662108 -8.040150 39.081100 -0.000007 -0.000012 0.067275 -0.033620 63.443200 40.985400 -0.000006 -0.000013 -6.735720 5.071670 -37.117600 11.754300 -0.000000 0.000003 0.001805 0.039918 -14.957500 -2.192510 6.469440 -0.000001 -166.746000 0.360900 144.495000 -39.081100 -0.002282 -0.040193 -0.028786 0.023659 53.539700 -40.985400 0.000008 0.000006 -4.637380 -0.703422 -84.554600 -11.754300 -0.000006 -0.000006 -0.006635 0.244166 -6.659610
